<?xml version="1.0" encoding="UTF-8"?>
<svg id="Layer_1" data-name="Layer 1" xmlns="http://www.w3.org/2000/svg" viewBox="0 0 1821.6 2319.54">
  <defs>
    <style>
      .cls-1 {
        fill: #ab5e82;
      }

      .cls-2 {
        fill: #999;
        font-family: RealHeadPro-Regular, 'Real Head Pro';
        font-size: 426.39px;
      }

      .cls-3 {
        letter-spacing: 0em;
      }
    </style>
  </defs>
  <path class="cls-1" d="M880.89,410.41l188.13-1.36-69.14-120.44-499.03,2.69,91.06-157.8-144.16-.24-248,430.44-90.02-155.91-63.58,111.85,256.18,443.04-188.5.49,66.6,117.29,498.7.11-90.62,158.41,137.7,1.24,245.29-433.25,94.81,162.45,67.34-116.45-252.77-442.55ZM747.32,960.97l-315.61.03-157.74-274.56,157.8-274.47,315.58-.07,157.75,274.52-157.78,274.55Z"/>
  <text class="cls-2" transform="translate(0 1683.36)"><tspan x="0" y="0">Jackie</tspan><tspan class="cls-3" x="0" y="511.67">C</tspan><tspan x="291.22" y="511.67">h</tspan><tspan class="cls-3" x="529.57" y="511.67">o</tspan><tspan x="771.76" y="511.67">y</tspan></text>
  <text/>
  <text/>
</svg>